# xmcd CD database file
#
# Track frame offsets:
#	150
#	15095
#	32450
#	49070
#	72725
#	88672
#	99504
#	115715
#	133622
#	148255
#	163270
#
# Disc length: 2406 seconds
#
# Revision: 0
# Processed by: cddbd v1.4PL0 Copyright (c) Steve Scherf et al.
# Submitted via: CDex 1.50
#
DISCID=9109640b
DTITLE=The Mavericks - What A Crying Shame
DYEAR=1900
DGENRE=Country
TTITLE0=There Goes My Heart
TTITLE1=What A Crying Shame
TTITLE2=Pretend
TTITLE3=I Should Have Been True
TTITLE4=The Things You Said To Me
TTITLE5=Just A Memory
TTITLE6=All That Heaven Will Allow
TTITLE7=Neon Blue
TTITLE8=What A Thrill
TTITLE9=Ain't Found Nobody
TTITLE10=The Losing Side Of Me
EXTD=
EXTT0=
EXTT1=
EXTT2=
EXTT3=
EXTT4=
EXTT5=
EXTT6=
EXTT7=
EXTT8=
EXTT9=
EXTT10=
PLAYORDER=
